<svg width="28" height="28" viewBox="0 0 28 28" fill="none" xmlns="http://www.w3.org/2000/svg">
<path d="M2.91699 13.9993C2.91699 8.77462 2.91699 6.16225 4.54011 4.53913C6.16323 2.91602 8.7756 2.91602 14.0003 2.91602C19.225 2.91602 21.8374 2.91602 23.4606 4.53913C25.0837 6.16225 25.0837 8.77462 25.0837 13.9993C25.0837 19.224 25.0837 21.8364 23.4606 23.4596C21.8374 25.0827 19.225 25.0827 14.0003 25.0827C8.7756 25.0827 6.16323 25.0827 4.54011 23.4596C2.91699 21.8364 2.91699 19.224 2.91699 13.9993Z" stroke="#FDFDFD" stroke-width="2.33333" stroke-linejoin="round"/>
<path d="M19.25 14C19.25 16.8995 16.8995 19.25 14 19.25C11.1005 19.25 8.75 16.8995 8.75 14C8.75 11.1005 11.1005 8.75 14 8.75C16.8995 8.75 19.25 11.1005 19.25 14Z" stroke="#FDFDFD" stroke-width="2.33333"/>
<path d="M20.4255 7.58398H20.415" stroke="#FDFDFD" stroke-width="2.33333" stroke-linecap="round" stroke-linejoin="round"/>
</svg>
