<svg width="64" height="64" viewBox="0 0 64 64" fill="none" xmlns="http://www.w3.org/2000/svg">
<g opacity="0.88">
<path opacity="0.4" d="M53.85 6.06642C54.1889 6.15735 54.4978 6.3358 54.7459 6.58388C54.994 6.83195 55.1724 7.14091 55.2634 7.47976C60.01 25.1011 58.1167 36.4718 53.13 43.4904C48.1433 50.5091 40.4313 52.6664 34.666 52.6664C29.8921 52.6664 25.3137 50.77 21.9381 47.3943C18.5624 44.0187 16.666 39.4403 16.666 34.6664C16.666 24.8158 24.3727 18.1171 34.3833 16.6878C43.4367 15.3944 47.77 10.8851 50.8633 7.66642C51.2296 7.2842 51.5816 6.9242 51.9193 6.58642C52.1672 6.33797 52.4761 6.15912 52.815 6.06784C53.1539 5.97657 53.5109 5.97608 53.85 6.06642Z" fill="#141414"/>
<path d="M46.5069 25.1921C46.9364 25.503 47.2249 25.9718 47.3089 26.4953C47.3929 27.0189 47.2656 27.5544 46.9549 27.9841C42.6695 33.9068 36.3149 39.6481 27.1522 41.9388C21.2509 43.4161 17.2615 45.3094 14.6109 47.6374C12.0162 49.9174 10.5735 52.7228 9.97088 56.3308C9.93382 56.5952 9.84416 56.8496 9.7072 57.0789C9.57024 57.3081 9.38875 57.5077 9.17344 57.6657C8.95813 57.8237 8.71335 57.9369 8.45355 57.9988C8.19376 58.0607 7.9242 58.0699 7.66079 58.0259C7.39737 57.9819 7.14544 57.8856 6.91984 57.7427C6.69425 57.5997 6.49956 57.4131 6.34728 57.1937C6.19499 56.9743 6.08818 56.7266 6.03315 56.4653C5.97812 56.204 5.97599 55.9343 6.02688 55.6721C6.76021 51.2774 8.59488 47.5974 11.9735 44.6321C15.2935 41.7174 19.9709 39.6134 26.1815 38.0588C34.1735 36.0614 39.8029 31.0454 43.7122 25.6401C43.8662 25.427 44.0606 25.2464 44.2845 25.1086C44.5083 24.9707 44.7571 24.8783 45.0167 24.8367C45.2762 24.7951 45.5414 24.8051 45.7971 24.8661C46.0529 24.927 46.294 25.0378 46.5069 25.1921Z" fill="#141414"/>
</g>
</svg>
