<svg width="64" height="64" viewBox="0 0 64 64" fill="none" xmlns="http://www.w3.org/2000/svg">
<g opacity="0.88">
<path opacity="0.4" fill-rule="evenodd" clip-rule="evenodd" d="M27.6929 24.2047C28.0161 24.3395 28.3097 24.5366 28.5567 24.7849C28.8037 25.0331 28.9995 25.3276 29.1327 25.6515C29.2659 25.9754 29.334 26.3224 29.3331 26.6726C29.3323 27.0228 29.2624 27.3695 29.1276 27.6927L15.7942 59.6927C15.5219 60.3455 15.0015 60.8633 14.3474 61.1324C13.6932 61.4015 12.959 61.3996 12.3062 61.1273C11.6534 60.8551 11.1356 60.3346 10.8665 59.6805C10.5974 59.0263 10.5993 58.2921 10.8716 57.6393L24.2049 25.6393C24.3397 25.3161 24.5368 25.0226 24.7851 24.7755C25.0333 24.5285 25.3278 24.3328 25.6517 24.1995C25.9756 24.0663 26.3226 23.9982 26.6728 23.9991C27.023 24 27.3697 24.0698 27.6929 24.2047ZM36.3062 24.2047C36.6296 24.0699 36.9764 24.0002 37.3267 23.9995C37.6771 23.9988 38.0241 24.0671 38.348 24.2006C38.672 24.3341 38.9664 24.5301 39.2146 24.7774C39.4627 25.0247 39.6597 25.3185 39.7942 25.642L53.1276 57.642C53.387 58.2924 53.3802 59.0188 53.1086 59.6642C52.837 60.3096 52.3225 60.8223 51.6761 61.0916C51.0297 61.3608 50.3033 61.3651 49.6539 61.1033C49.0044 60.8416 48.4839 60.3349 48.2049 59.6927L34.8716 27.6927C34.7368 27.3693 34.6671 27.0225 34.6664 26.6722C34.6657 26.3218 34.734 25.9748 34.8675 25.6509C35.001 25.3269 35.197 25.0325 35.4443 24.7843C35.6916 24.5362 35.9854 24.3392 36.3089 24.2047M31.9996 2.66602C32.7068 2.66602 33.3851 2.94697 33.8852 3.44706C34.3853 3.94716 34.6662 4.62544 34.6662 5.33268V10.666C34.6662 11.3733 34.3853 12.0515 33.8852 12.5516C33.3851 13.0517 32.7068 13.3327 31.9996 13.3327C31.2923 13.3327 30.614 13.0517 30.1139 12.5516C29.6138 12.0515 29.3329 11.3733 29.3329 10.666V5.33268C29.3329 4.62544 29.6138 3.94716 30.1139 3.44706C30.614 2.94697 31.2923 2.66602 31.9996 2.66602Z" fill="#141414"/>
<path d="M22 18.667C22 16.0148 23.0536 13.4713 24.9289 11.5959C26.8043 9.72056 29.3478 8.66699 32 8.66699C34.6522 8.66699 37.1957 9.72056 39.0711 11.5959C40.9464 13.4713 42 16.0148 42 18.667C42 21.3192 40.9464 23.8627 39.0711 25.7381C37.1957 27.6134 34.6522 28.667 32 28.667C29.3478 28.667 26.8043 27.6134 24.9289 25.7381C23.0536 23.8627 22 21.3192 22 18.667Z" fill="#141414"/>
<path fill-rule="evenodd" clip-rule="evenodd" d="M6.53349 32.4395C7.12406 32.0506 7.84492 31.9122 8.53752 32.0547C9.23013 32.1973 9.83777 32.609 10.2268 33.1995C15.0935 40.5915 23.0668 45.3328 32.0002 45.3328C40.9335 45.3328 48.9068 40.5915 53.7735 33.1995C54.1679 32.6217 54.7737 32.2221 55.46 32.0868C56.1464 31.9515 56.8585 32.0913 57.4427 32.4761C58.0269 32.861 58.4365 33.46 58.5832 34.144C58.7299 34.828 58.6019 35.5423 58.2268 36.1328C52.4748 44.8715 42.9068 50.6662 32.0002 50.6662C21.0935 50.6662 11.5255 44.8715 5.77349 36.1328C5.3846 35.5423 5.2462 34.8214 5.38872 34.1288C5.53124 33.4362 5.94302 32.8286 6.53349 32.4395Z" fill="#141414"/>
<path fill-rule="evenodd" clip-rule="evenodd" d="M32.0007 42.666C32.7079 42.666 33.3862 42.947 33.8863 43.4471C34.3864 43.9472 34.6673 44.6254 34.6673 45.3327V50.666C34.6673 51.3733 34.3864 52.0515 33.8863 52.5516C33.3862 53.0517 32.7079 53.3327 32.0007 53.3327C31.2934 53.3327 30.6151 53.0517 30.115 52.5516C29.6149 52.0515 29.334 51.3733 29.334 50.666V45.3327C29.334 44.6254 29.6149 43.9472 30.115 43.4471C30.6151 42.947 31.2934 42.666 32.0007 42.666Z" fill="#141414"/>
</g>
</svg>
