<svg width="64" height="64" viewBox="0 0 64 64" fill="none" xmlns="http://www.w3.org/2000/svg">
<g opacity="0.88">
<path d="M10.6777 21.3327C10.6777 16.3033 10.6777 13.7913 12.2404 12.2287C13.8004 10.666 16.3151 10.666 21.3444 10.666H22.4964C24.5604 10.666 25.5951 10.666 26.5337 11.034C27.4724 11.402 28.2297 12.1033 29.7444 13.5087L34.1977 17.6313C35.6111 18.9433 36.3204 19.5993 36.7497 20.4313C36.8564 20.6358 36.9488 20.8465 37.0271 21.0633C37.3444 21.9433 37.3444 22.9087 37.3444 24.8393C37.3444 29.0553 37.3444 31.1647 36.2191 32.61C35.9471 32.9585 35.636 33.2687 35.2857 33.5407C33.8457 34.666 31.7337 34.666 27.5204 34.666H21.3444C16.3151 34.666 13.8004 34.666 12.2404 33.1033C10.6777 31.5407 10.6777 29.0287 10.6777 23.9993V21.3327Z" fill="#141414"/>
<path d="M22.8004 8.66602C24.5684 8.66602 25.9657 8.66335 27.2644 9.17268C28.5604 9.67935 29.5844 10.6313 30.8804 11.834L35.7657 16.3593C36.9764 17.4793 37.9337 18.3647 38.5257 19.514C38.6733 19.7967 38.8004 20.0865 38.9071 20.3833C39.3471 21.5993 39.3471 22.9033 39.3444 24.554C39.3444 26.562 39.3444 28.642 39.1897 29.9913C39.0297 31.4047 38.6777 32.706 37.7977 33.8393C37.4244 34.3193 36.9977 34.746 36.5177 35.1193C35.3844 35.9994 34.0831 36.3514 32.6671 36.5114C31.3204 36.666 29.6431 36.666 27.6324 36.666H21.2057C18.8084 36.666 16.8111 36.666 15.2244 36.4527C13.5524 36.2287 12.0404 35.7327 10.8244 34.5167C9.6084 33.3007 9.11773 31.7913 8.89107 30.1167C8.67773 28.5327 8.67773 26.5327 8.67773 24.138V21.194C8.67773 18.7967 8.67773 16.7993 8.89107 15.2153C9.11507 13.5407 9.61107 12.0287 10.8244 10.8153C12.0404 9.59935 13.5524 9.10335 15.2244 8.87935C16.8111 8.66602 18.8084 8.66602 21.2057 8.66602H22.8004Z" fill="#141414"/>
<path opacity="0.4" d="M3.33398 50.666C3.33398 48.0139 4.38755 45.4703 6.26292 43.5949C8.13828 41.7196 10.6818 40.666 13.334 40.666H40.0007C42.6528 40.666 45.1964 41.7196 47.0717 43.5949C48.9471 45.4703 50.0007 48.0139 50.0007 50.666C50.0007 53.3182 48.9471 55.8617 47.0717 57.7371C45.1964 59.6125 42.6528 60.666 40.0007 60.666H13.334C10.6818 60.666 8.13828 59.6125 6.26292 57.7371C4.38755 55.8617 3.33398 53.3182 3.33398 50.666Z" fill="#141414"/>
<path fill-rule="evenodd" clip-rule="evenodd" d="M13.334 50.6667C13.334 49.9594 13.6149 49.2811 14.115 48.781C14.6151 48.2809 15.2934 48 16.0007 48H16.0247C16.7319 48 17.4102 48.2809 17.9103 48.781C18.4104 49.2811 18.6913 49.9594 18.6913 50.6667C18.6913 51.3739 18.4104 52.0522 17.9103 52.5523C17.4102 53.0524 16.7319 53.3333 16.0247 53.3333H16.0007C15.2934 53.3333 14.6151 53.0524 14.115 52.5523C13.6149 52.0522 13.334 51.3739 13.334 50.6667ZM23.99 50.6667C23.99 49.9594 24.2709 49.2811 24.771 48.781C25.2711 48.2809 25.9494 48 26.6567 48H26.678C27.3852 48 28.0635 48.2809 28.5636 48.781C29.0637 49.2811 29.3446 49.9594 29.3446 50.6667C29.3446 51.3739 29.0637 52.0522 28.5636 52.5523C28.0635 53.0524 27.3852 53.3333 26.678 53.3333H26.6567C25.9494 53.3333 25.2711 53.0524 24.771 52.5523C24.2709 52.0522 23.99 51.3739 23.99 50.6667ZM34.6433 50.6667C34.6433 49.9594 34.9243 49.2811 35.4244 48.781C35.9245 48.2809 36.6027 48 37.31 48H37.334C38.0412 48 38.7195 48.2809 39.2196 48.781C39.7197 49.2811 40.0006 49.9594 40.0006 50.6667C40.0006 51.3739 39.7197 52.0522 39.2196 52.5523C38.7195 53.0524 38.0412 53.3333 37.334 53.3333H37.31C36.6027 53.3333 35.9245 53.0524 35.4244 52.5523C34.9243 52.0522 34.6433 51.3739 34.6433 50.6667Z" fill="#141414"/>
<path opacity="0.4" fill-rule="evenodd" clip-rule="evenodd" d="M52.0294 2.6663H53.3361C54.0433 2.6663 54.7216 2.94725 55.2217 3.44735C55.7218 3.94744 56.0028 4.62572 56.0028 5.33297C56.0028 6.04021 55.7218 6.71849 55.2217 7.21858C54.7216 7.71868 54.0433 7.99963 53.3361 7.99963H52.5201C48.7468 7.99963 47.6668 8.05297 46.7441 8.46897C45.8241 8.8823 45.0641 9.65297 42.5574 12.4743L36.6641 19.1036C36.1905 19.6172 35.5342 19.9244 34.8364 19.9592C34.1387 19.9939 33.4551 19.7534 32.9328 19.2895C32.4105 18.8255 32.0911 18.1751 32.0434 17.4781C31.9956 16.7811 32.2233 16.0932 32.6774 15.5623L38.5708 8.9303L38.8961 8.56497C40.9228 6.27963 42.4641 4.54363 44.5601 3.6023C46.6534 2.66097 48.9761 2.66363 52.0294 2.6663Z" fill="#141414"/>
<path fill-rule="evenodd" clip-rule="evenodd" d="M53.3361 10.666C54.0433 10.666 54.7216 10.947 55.2217 11.4471C55.7218 11.9472 56.0028 12.6254 56.0028 13.3327V14.666C56.0028 15.3733 55.7218 16.0515 55.2217 16.5516C54.7216 17.0517 54.0433 17.3327 53.3361 17.3327C52.6289 17.3327 51.9506 17.0517 51.4505 16.5516C50.9504 16.0515 50.6694 15.3733 50.6694 14.666V13.3327C50.6694 12.6254 50.9504 11.9472 51.4505 11.4471C51.9506 10.947 52.6289 10.666 53.3361 10.666ZM53.3361 18.666C54.0433 18.666 54.7216 18.947 55.2217 19.4471C55.7218 19.9472 56.0028 20.6254 56.0028 21.3327V22.666C56.0028 23.3733 55.7218 24.0515 55.2217 24.5516C54.7216 25.0517 54.0433 25.3327 53.3361 25.3327C52.6289 25.3327 51.9506 25.0517 51.4505 24.5516C50.9504 24.0515 50.6694 23.3733 50.6694 22.666V21.3327C50.6694 20.6254 50.9504 19.9472 51.4505 19.4471C51.9506 18.947 52.6289 18.666 53.3361 18.666ZM55.7441 28.4794C55.5426 27.8792 55.1341 27.3702 54.5918 27.0436C54.0494 26.717 53.4086 26.594 52.7838 26.6967C52.1591 26.7993 51.5913 27.1208 51.1819 27.6038C50.7725 28.0867 50.5483 28.6996 50.5494 29.3327V30.666C50.5494 31.3733 50.8304 32.0515 51.3305 32.5516C51.8306 33.0517 52.5089 33.3327 53.2161 33.3327C54.0908 33.3327 54.6668 33.9993 54.6668 34.666C54.6668 35.33 54.0908 35.9993 53.2161 35.9993C52.9209 36.0068 52.6306 35.9232 52.3844 35.7601C52.1383 35.597 51.9483 35.3621 51.8401 35.0873C51.5982 34.4225 51.1022 33.881 50.461 33.582C49.8199 33.2829 49.0862 33.2508 48.4214 33.4927C47.7566 33.7346 47.2151 34.2306 46.9161 34.8718C46.617 35.5129 46.5849 36.2465 46.8268 36.9113C47.3094 38.2149 48.1814 39.3383 49.3244 40.1293C50.4674 40.9202 51.8261 41.3404 53.2161 41.3327C56.8908 41.3327 60.0001 38.4207 60.0001 34.666C60.0001 31.818 58.2134 29.4554 55.7441 28.4794Z" fill="#141414"/>
</g>
</svg>
