<svg width="32" height="32" viewBox="0 0 32 32" fill="none" xmlns="http://www.w3.org/2000/svg">
<path d="M5.33984 10.6673C5.33984 8.15265 5.33984 6.89665 6.12118 6.11532C6.90118 5.33398 8.15851 5.33398 10.6732 5.33398H11.2492C12.2812 5.33398 12.7985 5.33398 13.2678 5.51798C13.7372 5.70198 14.1158 6.05265 14.8732 6.75532L17.0998 8.81665C17.8065 9.47265 18.1612 9.80065 18.3758 10.2167C18.4292 10.3189 18.4754 10.4242 18.5145 10.5327C18.6732 10.9727 18.6732 11.4553 18.6732 12.4207C18.6732 14.5287 18.6732 15.5833 18.1105 16.306C17.9745 16.4802 17.819 16.6353 17.6438 16.7713C16.9238 17.334 15.8678 17.334 13.7612 17.334H10.6732C8.15851 17.334 6.90118 17.334 6.12118 16.5527C5.33984 15.7713 5.33984 14.5153 5.33984 12.0007V10.6673Z" fill="#027833"/>
<path d="M11.4012 4.33398C12.2852 4.33398 12.9838 4.33265 13.6332 4.58732C14.2812 4.84065 14.7932 5.31665 15.4412 5.91798L17.8838 8.18065C18.4892 8.74065 18.9678 9.18332 19.2638 9.75798C19.3376 9.89932 19.4012 10.0442 19.4545 10.1927C19.6745 10.8007 19.6745 11.4527 19.6732 12.278C19.6732 13.282 19.6732 14.322 19.5958 14.9967C19.5158 15.7033 19.3398 16.354 18.8998 16.9207C18.7132 17.1607 18.4998 17.374 18.2598 17.5607C17.6932 18.0007 17.0425 18.1767 16.3345 18.2567C15.6612 18.334 14.8225 18.334 13.8172 18.334H10.6038C9.40518 18.334 8.40651 18.334 7.61318 18.2273C6.77718 18.1153 6.02118 17.8673 5.41318 17.2593C4.80518 16.6513 4.55984 15.8967 4.44651 15.0593C4.33984 14.2673 4.33984 13.2673 4.33984 12.07V10.598C4.33984 9.39932 4.33984 8.40065 4.44651 7.60865C4.55851 6.77132 4.80651 6.01532 5.41318 5.40865C6.02118 4.80065 6.77718 4.55265 7.61318 4.44065C8.40651 4.33398 9.40518 4.33398 10.6038 4.33398H11.4012Z" fill="#027833"/>
<path opacity="0.4" d="M1.66797 25.334C1.66797 24.0079 2.19475 22.7361 3.13243 21.7984C4.07012 20.8608 5.34189 20.334 6.66797 20.334H20.0013C21.3274 20.334 22.5992 20.8608 23.5368 21.7984C24.4745 22.7361 25.0013 24.0079 25.0013 25.334C25.0013 26.6601 24.4745 27.9318 23.5368 28.8695C22.5992 29.8072 21.3274 30.334 20.0013 30.334H6.66797C5.34189 30.334 4.07012 29.8072 3.13243 28.8695C2.19475 27.9318 1.66797 26.6601 1.66797 25.334Z" fill="#027833"/>
<path fill-rule="evenodd" clip-rule="evenodd" d="M6.66797 25.3333C6.66797 24.9797 6.80844 24.6406 7.05849 24.3905C7.30854 24.1405 7.64768 24 8.0013 24H8.0133C8.36692 24 8.70606 24.1405 8.95611 24.3905C9.20616 24.6406 9.34664 24.9797 9.34664 25.3333C9.34664 25.687 9.20616 26.0261 8.95611 26.2761C8.70606 26.5262 8.36692 26.6667 8.0133 26.6667H8.0013C7.64768 26.6667 7.30854 26.5262 7.05849 26.2761C6.80844 26.0261 6.66797 25.687 6.66797 25.3333ZM11.996 25.3333C11.996 24.9797 12.1364 24.6406 12.3865 24.3905C12.6365 24.1405 12.9757 24 13.3293 24H13.34C13.6936 24 14.0327 24.1405 14.2828 24.3905C14.5328 24.6406 14.6733 24.9797 14.6733 25.3333C14.6733 25.687 14.5328 26.0261 14.2828 26.2761C14.0327 26.5262 13.6936 26.6667 13.34 26.6667H13.3293C12.9757 26.6667 12.6365 26.5262 12.3865 26.2761C12.1364 26.0261 11.996 25.687 11.996 25.3333ZM17.3226 25.3333C17.3226 24.9797 17.4631 24.6406 17.7132 24.3905C17.9632 24.1405 18.3023 24 18.656 24H18.668C19.0216 24 19.3607 24.1405 19.6108 24.3905C19.8608 24.6406 20.0013 24.9797 20.0013 25.3333C20.0013 25.687 19.8608 26.0261 19.6108 26.2761C19.3607 26.5262 19.0216 26.6667 18.668 26.6667H18.656C18.3023 26.6667 17.9632 26.5262 17.7132 26.2761C17.4631 26.0261 17.3226 25.687 17.3226 25.3333Z" fill="#027833"/>
<path opacity="0.4" fill-rule="evenodd" clip-rule="evenodd" d="M26.0118 1.33413H26.6651C27.0187 1.33413 27.3579 1.4746 27.6079 1.72465C27.858 1.9747 27.9984 2.31384 27.9984 2.66746C27.9984 3.02108 27.858 3.36022 27.6079 3.61027C27.3579 3.86032 27.0187 4.00079 26.6651 4.00079H26.2571C24.3704 4.00079 23.8304 4.02746 23.3691 4.23546C22.9091 4.44213 22.5291 4.82746 21.2758 6.23813L18.3291 9.55279C18.0923 9.80958 17.7642 9.96318 17.4153 9.98055C17.0664 9.99793 16.7246 9.8777 16.4635 9.64571C16.2023 9.41372 16.0426 9.08851 16.0187 8.74002C15.9949 8.39152 16.1087 8.04757 16.3358 7.78213L19.2824 4.46613L19.4451 4.28346C20.4584 3.14079 21.2291 2.27279 22.2771 1.80213C23.3238 1.33146 24.4851 1.33279 26.0118 1.33413Z" fill="#027833"/>
<path fill-rule="evenodd" clip-rule="evenodd" d="M26.6671 5.33398C27.0207 5.33398 27.3598 5.47446 27.6099 5.72451C27.8599 5.97456 28.0004 6.3137 28.0004 6.66732V7.33398C28.0004 7.68761 27.8599 8.02674 27.6099 8.27679C27.3598 8.52684 27.0207 8.66732 26.6671 8.66732C26.3135 8.66732 25.9743 8.52684 25.7243 8.27679C25.4742 8.02674 25.3337 7.68761 25.3337 7.33398V6.66732C25.3337 6.3137 25.4742 5.97456 25.7243 5.72451C25.9743 5.47446 26.3135 5.33398 26.6671 5.33398ZM26.6671 9.33398C27.0207 9.33398 27.3598 9.47446 27.6099 9.72451C27.8599 9.97456 28.0004 10.3137 28.0004 10.6673V11.334C28.0004 11.6876 27.8599 12.0267 27.6099 12.2768C27.3598 12.5268 27.0207 12.6673 26.6671 12.6673C26.3135 12.6673 25.9743 12.5268 25.7243 12.2768C25.4742 12.0267 25.3337 11.6876 25.3337 11.334V10.6673C25.3337 10.3137 25.4742 9.97456 25.7243 9.72451C25.9743 9.47446 26.3135 9.33398 26.6671 9.33398ZM27.8711 14.2407C27.7703 13.9406 27.5661 13.6861 27.2949 13.5228C27.0237 13.3595 26.7033 13.298 26.3909 13.3493C26.0786 13.4006 25.7947 13.5614 25.59 13.8029C25.3853 14.0443 25.2732 14.3508 25.2737 14.6673V15.334C25.2737 15.6876 25.4142 16.0267 25.6643 16.2768C25.9143 16.5268 26.2535 16.6673 26.6071 16.6673C27.0444 16.6673 27.3324 17.0007 27.3324 17.334C27.3324 17.666 27.0444 18.0007 26.6071 18.0007C26.4595 18.0044 26.3143 17.9626 26.1912 17.881C26.0682 17.7995 25.9732 17.682 25.9191 17.5447C25.7981 17.2122 25.5501 16.9415 25.2295 16.792C24.909 16.6424 24.5421 16.6264 24.2097 16.7473C23.8773 16.8683 23.6066 17.1163 23.4571 17.4369C23.3075 17.7574 23.2915 18.1242 23.4124 18.4567C23.6537 19.1084 24.0897 19.6701 24.6612 20.0656C25.2327 20.4611 25.9121 20.6712 26.6071 20.6673C28.4444 20.6673 29.9991 19.2113 29.9991 17.334C29.9991 15.91 29.1057 14.7287 27.8711 14.2407Z" fill="#027833"/>
</svg>
