<svg width="32" height="32" viewBox="0 0 32 32" fill="none" xmlns="http://www.w3.org/2000/svg">
<path opacity="0.4" d="M14.6839 2.18869C15.0746 1.90202 15.5372 1.66469 16.1186 1.66602C16.6986 1.66735 17.1612 1.90602 17.5519 2.19669C17.9052 2.45802 18.2892 2.83002 18.7079 3.23802L21.6199 6.06469C22.0506 6.48335 22.4119 6.83269 22.6732 7.12469C22.9212 7.40069 23.2092 7.76069 23.3186 8.20202C23.4358 8.68486 23.3941 9.19266 23.1995 9.64984C23.0049 10.107 22.6679 10.4892 22.2386 10.7394C22.0372 10.8594 21.8172 10.93 21.5986 10.9754L22.8106 12.3474C23.3612 12.9714 23.8292 13.5007 24.1439 13.946C24.4506 14.378 24.7799 14.9487 24.7092 15.6194C24.653 16.1402 24.4212 16.6264 24.0519 16.998C23.6106 17.446 23.0106 17.5807 22.4892 17.6407L23.7106 18.938C24.5586 19.838 25.2706 20.5954 25.7159 21.2314C26.1519 21.8527 26.5826 22.7087 26.1626 23.626C25.7492 24.526 24.8346 24.786 24.0746 24.8914C23.2946 24.9994 22.2386 24.9994 20.9746 24.9994H10.7772C9.6039 24.9994 8.61457 24.9994 7.87723 24.8954C7.1439 24.7927 6.2839 24.5394 5.86257 23.6914C5.43323 22.8274 5.77857 21.994 6.1599 21.3674C6.5399 20.7407 7.1599 19.994 7.89323 19.1114L9.10923 17.6474C8.6919 17.5994 8.22523 17.4954 7.84657 17.2007C7.54076 16.9645 7.29919 16.6553 7.14403 16.3014C6.98887 15.9475 6.9251 15.5603 6.95857 15.1754C7.0079 14.6127 7.3399 14.154 7.62923 13.806C7.93457 13.4407 8.36657 13.006 8.88257 12.486L10.4186 10.9394C10.259 10.8963 10.1054 10.8336 9.96123 10.7527C9.51972 10.502 9.17325 10.1126 8.97558 9.64491C8.7779 9.17723 8.74005 8.6574 8.8679 8.16602C8.98123 7.73535 9.2679 7.38469 9.51323 7.11535C9.7719 6.83002 10.1292 6.48602 10.5546 6.07669L13.5212 3.22602C13.9426 2.81935 14.3279 2.45002 14.6839 2.18869Z" fill="#027833"/>
<path fill-rule="evenodd" clip-rule="evenodd" d="M16.0013 17C16.3549 17 16.6941 17.1405 16.9441 17.3905C17.1942 17.6406 17.3346 17.9797 17.3346 18.3333V29C17.3346 29.3536 17.1942 29.6928 16.9441 29.9428C16.6941 30.1929 16.3549 30.3333 16.0013 30.3333C15.6477 30.3333 15.3085 30.1929 15.0585 29.9428C14.8084 29.6928 14.668 29.3536 14.668 29V18.3333C14.668 17.9797 14.8084 17.6406 15.0585 17.3905C15.3085 17.1405 15.6477 17 16.0013 17Z" fill="#027833"/>
</svg>
