<svg width="32" height="32" viewBox="0 0 32 32" fill="none" xmlns="http://www.w3.org/2000/svg">
<path opacity="0.24" d="M18.0734 2.33398C20.524 2.33398 22.4654 2.33398 23.984 2.53798C25.5467 2.74865 26.812 3.19132 27.8107 4.18865C28.808 5.18732 29.2507 6.45265 29.4614 8.01532C29.6654 9.53532 29.6654 11.4753 29.6654 13.926V18.0753C29.6654 20.526 29.6654 22.4673 29.4614 23.986C29.2507 25.5487 28.808 26.814 27.8107 27.8127C26.812 28.81 25.5467 29.2527 23.984 29.4633C22.464 29.6673 20.524 29.6673 18.0734 29.6673H13.924C11.4734 29.6673 9.53203 29.6673 8.01336 29.4633C6.4507 29.2527 5.18536 28.81 4.1867 27.8127C3.18936 26.814 2.7467 25.5487 2.53603 23.986C2.33203 22.466 2.33203 20.526 2.33203 18.0753V13.926C2.33203 11.4753 2.33203 9.53398 2.53603 8.01532C2.7467 6.45265 3.18936 5.18732 4.1867 4.18865C5.18536 3.19132 6.4507 2.74865 8.01336 2.53798C9.53336 2.33398 11.4734 2.33398 13.924 2.33398H18.0734Z" fill="#027833"/>
<path d="M2.33203 14.0007V13.926C2.33203 12.9887 2.33203 12.126 2.34403 11.334H17.9987C18.3523 11.334 18.6915 11.4745 18.9415 11.7245C19.1916 11.9746 19.332 12.3137 19.332 12.6673C19.332 13.0209 19.1916 13.3601 18.9415 13.6101C18.6915 13.8602 18.3523 14.0007 17.9987 14.0007H13.9987V29.6673H13.924C12.9867 29.6673 12.124 29.6673 11.332 29.6553V14.0007H2.33203ZM19.9987 29.6633C19.396 29.6669 18.7543 29.6682 18.0734 29.6673H17.332V28.6673C17.332 24.1207 20.5707 21.334 23.9987 21.334C24.3523 21.334 24.6915 21.4745 24.9415 21.7245C25.1916 21.9746 25.332 22.3137 25.332 22.6673C25.332 23.0209 25.1916 23.3601 24.9415 23.6101C24.6915 23.8602 24.3523 24.0007 23.9987 24.0007C22.0934 24.0007 19.9987 25.542 19.9987 28.6673V29.6633ZM29.6547 11.334C29.6636 12.1251 29.6671 12.9891 29.6654 13.926V14.0007H23.332C22.9784 14.0007 22.6393 13.8602 22.3892 13.6101C22.1392 13.3601 21.9987 13.0209 21.9987 12.6673C21.9987 12.3137 22.1392 11.9746 22.3892 11.7245C22.6393 11.4745 22.9784 11.334 23.332 11.334H29.6547ZM13.9987 2.33398V7.33398C13.9987 7.68761 13.8582 8.02674 13.6082 8.27679C13.3581 8.52684 13.019 8.66732 12.6654 8.66732C12.3117 8.66732 11.9726 8.52684 11.7226 8.27679C11.4725 8.02674 11.332 7.68761 11.332 7.33398V2.34598C12.124 2.33398 12.9867 2.33398 13.924 2.33398H13.9987Z" fill="#027833"/>
</svg>
