<svg width="32" height="32" viewBox="0 0 32 32" fill="none" xmlns="http://www.w3.org/2000/svg">
<path opacity="0.4" fill-rule="evenodd" clip-rule="evenodd" d="M16 4.66667C15.1522 4.66545 14.3069 4.75937 13.48 4.94667C13.1386 5.01579 12.7838 4.9486 12.4913 4.75946C12.1989 4.57033 11.992 4.27427 11.915 3.9346C11.838 3.59493 11.897 3.23862 12.0793 2.94187C12.2617 2.64512 12.5529 2.43149 12.8907 2.34667C13.8907 2.12 14.9333 2 16 2C23.732 2 30 8.268 30 16C30 19.5333 28.6907 22.76 26.5333 25.2227H27.3333C27.687 25.2227 28.0261 25.3631 28.2761 25.6132C28.5262 25.8632 28.6667 26.2024 28.6667 26.556C28.6667 26.9096 28.5262 27.2488 28.2761 27.4988C28.0261 27.7489 27.687 27.8893 27.3333 27.8893H23.004C22.6504 27.8893 22.3112 27.7489 22.0612 27.4988C21.8111 27.2488 21.6707 26.9096 21.6707 26.556V22.6667C21.6707 22.313 21.8111 21.9739 22.0612 21.7239C22.3112 21.4738 22.6504 21.3333 23.004 21.3333C23.3576 21.3333 23.6968 21.4738 23.9468 21.7239C24.1969 21.9739 24.3373 22.313 24.3373 22.6667V23.6773C25.8289 22.0576 26.8163 20.0385 27.179 17.8668C27.5417 15.695 27.2639 13.4646 26.3796 11.4481C25.4952 9.43169 24.0426 7.71651 22.1993 6.51219C20.356 5.30787 18.2019 4.66657 16 4.66667ZM3.33333 5.46667C3.33333 5.11304 3.47381 4.77391 3.72386 4.52386C3.97391 4.27381 4.31304 4.13333 4.66667 4.13333H8.96267C9.31629 4.13333 9.65543 4.27381 9.90548 4.52386C10.1555 4.77391 10.296 5.11304 10.296 5.46667V9.33333C10.296 9.68696 10.1555 10.0261 9.90548 10.2761C9.65543 10.5262 9.31629 10.6667 8.96267 10.6667C8.60905 10.6667 8.26991 10.5262 8.01986 10.2761C7.76981 10.0261 7.62933 9.68696 7.62933 9.33333V8.36C6.00032 10.1429 4.98345 12.3996 4.72698 14.801C4.47051 17.2024 4.98786 19.623 6.20359 21.7097C7.41932 23.7965 9.26987 25.4403 11.4854 26.4015C13.7009 27.3628 16.1656 27.5911 18.52 27.0533C18.6923 27.0101 18.8716 27.0017 19.0472 27.0287C19.2228 27.0556 19.3913 27.1175 19.5427 27.2105C19.6941 27.3035 19.8254 27.4258 19.9288 27.5703C20.0323 27.7148 20.1058 27.8785 20.1451 28.0518C20.1843 28.2251 20.1886 28.4045 20.1576 28.5794C20.1265 28.7544 20.0608 28.9214 19.9643 29.0706C19.8678 29.2198 19.7425 29.3482 19.5957 29.4483C19.4488 29.5483 19.2835 29.6181 19.1093 29.6533C18.1093 29.88 17.0667 30 16 30C8.268 30 2 23.732 2 16C2 12.4773 3.30133 9.25867 5.448 6.8H4.66667C4.31304 6.8 3.97391 6.65952 3.72386 6.40948C3.47381 6.15943 3.33333 5.82029 3.33333 5.46667Z" fill="#027833"/>
<path d="M15.348 8.57462C15.5293 8.41934 15.76 8.33398 15.9987 8.33398C16.2374 8.33398 16.4681 8.41934 16.6494 8.57462L16.6574 8.58262C16.8014 8.71329 17.2027 9.07729 17.4267 9.29595C17.8814 9.74129 18.492 10.372 19.104 11.116C19.7134 11.856 20.344 12.7293 20.824 13.656C21.3 14.5746 21.6654 15.612 21.6654 16.668C21.6654 18.1708 21.0683 19.6122 20.0056 20.6749C18.9429 21.7376 17.5016 22.3346 15.9987 22.3346C14.4958 22.3346 13.0545 21.7376 11.9918 20.6749C10.9291 19.6122 10.332 18.1708 10.332 16.668C10.332 15.612 10.6974 14.5746 11.1734 13.6546C11.6534 12.728 12.284 11.856 12.8934 11.116C13.6436 10.2107 14.4615 9.36385 15.34 8.58262L15.348 8.57462Z" fill="#027833"/>
</svg>
