<svg width="32" height="32" viewBox="0 0 32 32" fill="none" xmlns="http://www.w3.org/2000/svg">
<path opacity="0.4" fill-rule="evenodd" clip-rule="evenodd" d="M4.66797 20.334C4.93319 20.334 5.18754 20.4393 5.37508 20.6269C5.56261 20.8144 5.66797 21.0688 5.66797 21.334V29.334C5.66797 29.5992 5.56261 29.8536 5.37508 30.0411C5.18754 30.2286 4.93319 30.334 4.66797 30.334C4.40275 30.334 4.1484 30.2286 3.96086 30.0411C3.77333 29.8536 3.66797 29.5992 3.66797 29.334V21.334C3.66797 21.0688 3.77333 20.8144 3.96086 20.6269C4.1484 20.4393 4.40275 20.334 4.66797 20.334Z" fill="#027833"/>
<path d="M2.45464 16.1813C2.9573 15.5093 3.73064 15 4.66797 15C5.6053 15 6.37864 15.5093 6.8813 16.1813C7.3853 16.8533 7.66797 17.7347 7.66797 18.6667C7.66797 19.5987 7.3853 20.48 6.8813 21.152C6.37864 21.824 5.6053 22.3333 4.66797 22.3333C3.73064 22.3333 2.9573 21.824 2.45464 21.152C1.9493 20.48 1.66797 19.6 1.66797 18.6667C1.66797 17.7333 1.95064 16.8533 2.45464 16.1813Z" fill="#027833"/>
<path fill-rule="evenodd" clip-rule="evenodd" d="M1.66797 29.334C1.66797 29.0688 1.77333 28.8144 1.96086 28.6269C2.1484 28.4393 2.40275 28.334 2.66797 28.334H26.668C26.9332 28.334 27.1875 28.4393 27.3751 28.6269C27.5626 28.8144 27.668 29.0688 27.668 29.334C27.668 29.5992 27.5626 29.8536 27.3751 30.0411C27.1875 30.2286 26.9332 30.334 26.668 30.334H2.66797C2.40275 30.334 2.1484 30.2286 1.96086 30.0411C1.77333 29.8536 1.66797 29.5992 1.66797 29.334Z" fill="#027833"/>
<path fill-rule="evenodd" clip-rule="evenodd" d="M23.3322 15C22.6375 15 22.0375 15.2293 21.4429 15.572C20.8842 15.8933 20.2562 16.3613 19.5082 16.916L18.7615 17.4707C18.2842 17.8253 17.8762 18.1293 17.5575 18.412C17.2115 18.6997 16.9249 19.0521 16.7135 19.4493C16.3295 20.2 16.3309 21.0467 16.3322 22.0827V29.3333C16.3322 29.8853 16.7802 30.3333 17.3322 30.3333H23.3322C22.9786 30.3333 22.6394 30.1929 22.3894 29.9428C22.1393 29.6928 21.9989 29.3536 21.9989 29V26.3333C21.9989 25.9797 22.1393 25.6406 22.3894 25.3905C22.6394 25.1405 22.9786 25 23.3322 25C23.6858 25 24.0249 25.1405 24.275 25.3905C24.525 25.6406 24.6655 25.9797 24.6655 26.3333V29C24.6655 29.3536 24.525 29.6928 24.275 29.9428C24.0249 30.1929 23.6858 30.3333 23.3322 30.3333H24.0655C25.2655 30.3333 26.2629 30.3333 27.0522 30.232C27.8815 30.1253 28.6335 29.892 29.2429 29.3107C29.8562 28.7227 30.1095 27.9853 30.2255 27.172C30.3322 26.4093 30.3322 25.4493 30.3322 24.3093V22.0827C30.3335 21.0467 30.3349 20.1987 29.9522 19.4493C29.7381 19.0539 29.4518 18.702 29.1082 18.412C28.7882 18.1293 28.3802 17.8253 27.9015 17.4693L27.1575 16.916C26.4109 16.3613 25.7802 15.8933 25.2215 15.572C24.6282 15.2293 24.0282 15 23.3322 15Z" fill="#027833"/>
<path opacity="0.4" d="M20.6146 14.1273C21.3506 13.702 22.2426 13.3327 23.3346 13.3327C23.5284 13.3327 23.7155 13.3438 23.896 13.366C24.4546 13.4327 24.7333 13.4647 24.8666 13.3447C25.0013 13.226 25.0013 12.9807 25.0013 12.4913V6.66602C25.0013 5.81668 24.9586 5.06735 24.8186 4.43002C24.676 3.78202 24.4186 3.18868 23.9493 2.71802C23.48 2.24735 22.8853 1.99135 22.2373 1.84868C21.6 1.70868 20.8506 1.66602 20.0013 1.66602H14.668C13.8186 1.66602 13.0693 1.70868 12.432 1.84868C11.784 1.99135 11.1906 2.24868 10.72 2.71802C10.2493 3.18735 9.9933 3.78202 9.85064 4.43002C9.71064 5.06735 9.66797 5.81668 9.66797 6.66602V29.3327C9.66797 29.8847 10.116 30.3327 10.668 30.3327H13.868C14.2453 30.3327 14.4346 30.3327 14.5506 30.2153C14.6666 30.098 14.668 29.9087 14.668 29.5327V21.9407C14.6653 21.0207 14.6613 19.806 15.232 18.69C15.5733 18.0247 16.0253 17.5433 16.4533 17.1633C16.6746 16.9673 18.1546 15.8527 18.5733 15.5353C19.2733 15.0153 19.9693 14.498 20.6133 14.1273" fill="#027833"/>
<path fill-rule="evenodd" clip-rule="evenodd" d="M15 6.66602C15 6.4008 15.1054 6.14645 15.2929 5.95891C15.4804 5.77137 15.7348 5.66602 16 5.66602H18.6667C18.9319 5.66602 19.1862 5.77137 19.3738 5.95891C19.5613 6.14645 19.6667 6.4008 19.6667 6.66602C19.6667 6.93123 19.5613 7.18559 19.3738 7.37312C19.1862 7.56066 18.9319 7.66602 18.6667 7.66602H16C15.7348 7.66602 15.4804 7.56066 15.2929 7.37312C15.1054 7.18559 15 6.93123 15 6.66602ZM15 10.666C15 10.4008 15.1054 10.1464 15.2929 9.95891C15.4804 9.77137 15.7348 9.66602 16 9.66602H18.6667C18.9319 9.66602 19.1862 9.77137 19.3738 9.95891C19.5613 10.1464 19.6667 10.4008 19.6667 10.666C19.6667 10.9312 19.5613 11.1856 19.3738 11.3731C19.1862 11.5607 18.9319 11.666 18.6667 11.666H16C15.7348 11.666 15.4804 11.5607 15.2929 11.3731C15.1054 11.1856 15 10.9312 15 10.666Z" fill="#027833"/>
</svg>
