<svg width="32" height="32" viewBox="0 0 32 32" fill="none" xmlns="http://www.w3.org/2000/svg">
<path d="M6.85801 18.666C5.85755 17.0277 5.33008 15.1444 5.33401 13.2247C5.33401 7.39268 10.11 2.66602 16.0007 2.66602C21.8913 2.66602 26.6673 7.39268 26.6673 13.2247C26.6713 15.1444 26.1438 17.0277 25.1433 18.666" stroke="#027833" stroke-width="2.5" stroke-linecap="round"/>
<path opacity="0.4" d="M18.6665 13.334C17.8492 14.1913 16.9478 14.6673 15.9998 14.6673M15.9998 14.6673C15.0518 14.6673 14.1505 14.1913 13.3332 13.334M15.9998 14.6673V20.6673M19.9998 25.334L19.8265 26.1967C19.6398 27.1393 19.5452 27.61 19.3332 27.9833C19.0065 28.5587 18.4776 28.9921 17.8492 29.1993C17.4425 29.334 16.9598 29.334 15.9998 29.334C15.0398 29.334 14.5572 29.334 14.1505 29.2007C13.5219 28.9931 12.9929 28.5592 12.6665 27.9833C12.4545 27.61 12.3598 27.1393 12.1732 26.1967L11.9998 25.334M13.3492 25.334H18.6505C19.3665 25.334 19.7252 25.334 20.0412 25.254C20.703 25.0872 21.2756 24.673 21.6412 24.0967C21.8158 23.8207 21.9292 23.4793 22.1558 22.798C22.2785 22.43 22.3398 22.2447 22.3332 22.0953C22.3256 21.9409 22.2735 21.792 22.1831 21.6666C22.0927 21.5412 21.9679 21.4446 21.8238 21.3887C21.6852 21.334 21.4932 21.334 21.1038 21.334H10.8958C10.5078 21.334 10.3145 21.334 10.1758 21.3873C10.0315 21.4434 9.90661 21.5401 9.81621 21.6658C9.7258 21.7915 9.6738 21.9407 9.66651 22.0953C9.65984 22.2447 9.72117 22.4287 9.84384 22.798C10.0705 23.4793 10.1838 23.8207 10.3585 24.0967C10.7238 24.6753 11.2972 25.09 11.9585 25.2553C12.2758 25.334 12.6332 25.334 13.3492 25.334Z" stroke="#027833" stroke-width="2.5" stroke-linecap="round"/>
</svg>
