<svg width="32" height="32" viewBox="0 0 32 32" fill="none" xmlns="http://www.w3.org/2000/svg">
<path opacity="0.4" d="M7.87818 11.0003H24.1235C24.7155 11.0003 25.2795 11.0003 25.7408 11.079C26.2795 11.171 26.8022 11.3883 27.2022 11.899C27.5782 12.379 27.6928 12.891 27.6635 13.4243C27.6395 13.8563 27.5142 14.3443 27.3915 14.8203L27.3742 14.887C26.7204 17.4044 25.2483 19.6331 23.1894 21.2225C21.1306 22.8119 18.6018 23.6718 16.0008 23.667C13.4001 23.6719 10.8714 22.8122 8.81258 21.223C6.75375 19.6339 5.28155 17.4055 4.62751 14.8883L4.61018 14.8203C4.48751 14.343 4.36218 13.8563 4.33818 13.4243C4.29366 12.8756 4.45901 12.3305 4.80085 11.899C5.20085 11.3883 5.72351 11.171 6.26218 11.079C6.72351 10.999 7.28751 10.999 7.87818 11.0003Z" fill="#027833"/>
<path d="M18.3867 23.4234C19.3908 23.217 20.3635 22.8799 21.28 22.4207L20.4573 26.9474C20.2681 27.9911 19.7183 28.9352 18.9041 29.6151C18.0899 30.295 17.0628 30.6674 16.002 30.6674C14.9412 30.6674 13.9141 30.295 13.0999 29.6151C12.2857 28.9352 11.7359 27.9911 11.5467 26.9474L10.724 22.422C11.628 22.8753 12.5987 23.2154 13.6173 23.4234L14.1707 26.47C14.2479 26.8997 14.4736 27.2886 14.8085 27.5687C15.1434 27.8487 15.5661 28.0022 16.0027 28.0022C16.4392 28.0022 16.8619 27.8487 17.1968 27.5687C17.5317 27.2886 17.7575 26.8997 17.8347 26.47L18.3867 23.4234ZM10.6667 10.9993H13.3333V10.594C13.3333 10.0287 13.3333 9.47802 13.272 9.02468C13.204 8.51402 13.036 7.93135 12.552 7.44735C12.068 6.96335 11.4853 6.79535 10.9747 6.72735C10.52 6.66602 9.97067 6.66602 9.40533 6.66602H9.33333C8.97971 6.66602 8.64057 6.80649 8.39052 7.05654C8.14048 7.30659 8 7.64573 8 7.99935C8 8.35297 8.14048 8.69211 8.39052 8.94216C8.64057 9.19221 8.97971 9.33268 9.33333 9.33268C10 9.33268 10.3653 9.33535 10.6187 9.37002H10.628L10.6293 9.38068C10.664 9.63402 10.6667 9.99935 10.6667 10.666V10.9993ZM18.6667 10.9993H21.3333V9.33268C21.3333 8.97906 21.1929 8.63992 20.9428 8.38987C20.6928 8.13983 20.3536 7.99935 20 7.99935C19.6464 7.99935 19.3072 8.13983 19.0572 8.38987C18.8071 8.63992 18.6667 8.97906 18.6667 9.33268V10.9993Z" fill="#027833"/>
<path d="M14.667 11.0007H17.3337V4.66732C17.3337 4.49051 17.4039 4.32094 17.5289 4.19591C17.6539 4.07089 17.8235 4.00065 18.0003 4.00065C18.1771 4.00065 18.3467 4.07089 18.4717 4.19591C18.5968 4.32094 18.667 4.49051 18.667 4.66732C18.667 5.02094 18.8075 5.36008 19.0575 5.61013C19.3076 5.86018 19.6467 6.00065 20.0003 6.00065C20.3539 6.00065 20.6931 5.86018 20.9431 5.61013C21.1932 5.36008 21.3337 5.02094 21.3337 4.66732C21.3337 3.78326 20.9825 2.93542 20.3573 2.3103C19.7322 1.68517 18.8844 1.33398 18.0003 1.33398C17.1163 1.33398 16.2684 1.68517 15.6433 2.3103C15.0182 2.93542 14.667 3.78326 14.667 4.66732V11.0007Z" fill="#027833"/>
</svg>
