<svg width="32" height="32" viewBox="0 0 32 32" fill="none" xmlns="http://www.w3.org/2000/svg">
<path opacity="0.4" fill-rule="evenodd" clip-rule="evenodd" d="M15.788 2.83692C16.3693 2.66358 17.4013 2.66492 18.216 2.66625C19.0093 2.66625 19.676 2.66492 20.2533 2.83292C20.8227 2.99958 21.24 3.21958 21.7 3.59425C21.984 3.82758 22.2187 4.11292 22.432 4.40092C22.6427 4.68758 22.8893 5.05425 23.1853 5.49425C23.7227 6.29291 24.3387 7.08492 24.896 7.57425C25.2907 7.92225 25.6427 8.23291 25.8773 8.45558C25.9973 8.57025 26.1187 8.69291 26.224 8.81691C26.292 8.89691 26.444 9.07958 26.5467 9.33291H26.6667C27.0203 9.33291 27.3594 9.47339 27.6095 9.72344C27.8595 9.97349 28 10.3126 28 10.6662C28 11.0199 27.8595 11.359 27.6095 11.6091C27.3594 11.8591 27.0203 11.9996 26.6667 11.9996H26.24L24.3893 19.1862C24.176 20.0196 23.9867 20.7516 23.7627 21.3369C23.5227 21.9702 23.1947 22.5582 22.6333 23.0329C22.5258 23.1236 22.4133 23.208 22.296 23.2862C21.692 23.6982 21.0373 23.8596 20.3587 23.9316C19.724 23.9996 18.9533 23.9996 18.064 23.9996C17.1747 23.9996 16.2693 23.9996 15.636 23.9329C14.956 23.8596 14.3027 23.6982 13.6973 23.2876C13.5809 23.2087 13.4688 23.1236 13.3613 23.0329C12.7987 22.5582 12.472 21.9702 12.2307 21.3369C12.0067 20.7502 11.8187 20.0196 11.604 19.1849L9.75467 11.9996H9.33333C8.97971 11.9996 8.64057 11.8591 8.39052 11.6091C8.14048 11.359 8 11.0199 8 10.6662C8 10.3126 8.14048 9.97349 8.39052 9.72344C8.64057 9.47339 8.97971 9.33291 9.33333 9.33291H9.46133C9.568 9.07825 9.724 8.89558 9.79733 8.81291C9.90667 8.68758 10.0333 8.56625 10.1547 8.45558C10.3947 8.23825 10.7533 7.93825 11.152 7.60492C11.696 7.15158 12.2853 6.39692 12.8013 5.61425C13.112 5.14358 13.368 4.75425 13.5853 4.45158C13.7984 4.14169 14.0492 3.85953 14.332 3.61158C14.7987 3.22492 15.2053 3.00892 15.788 2.83692ZM12.508 11.9996H23.4867L21.8253 18.4529C21.588 19.3742 21.436 19.9582 21.272 20.3862C21.12 20.7836 21.0053 20.9169 20.9133 20.9942C20.8763 21.0257 20.8376 21.055 20.7973 21.0822C20.6933 21.1529 20.52 21.2329 20.0747 21.2809C19.6 21.3316 18.9733 21.3342 17.9973 21.3342C17.0213 21.3342 16.3947 21.3316 15.92 21.2809C15.4747 21.2329 15.3013 21.1529 15.196 21.0809C15.156 21.0542 15.1173 21.0254 15.08 20.9942C14.9893 20.9169 14.8733 20.7836 14.7227 20.3862C14.5587 19.9582 14.4067 19.3756 14.1693 18.4529L12.508 11.9996Z" fill="#027833"/>
<path fill-rule="evenodd" clip-rule="evenodd" d="M18.0003 1.33398C18.3539 1.33398 18.6931 1.47446 18.9431 1.72451C19.1932 1.97456 19.3337 2.3137 19.3337 2.66732V4.00065C19.3337 4.35427 19.1932 4.69341 18.9431 4.94346C18.6931 5.19351 18.3539 5.33398 18.0003 5.33398C17.6467 5.33398 17.3076 5.19351 17.0575 4.94346C16.8075 4.69341 16.667 4.35427 16.667 4.00065V2.66732C16.667 2.3137 16.8075 1.97456 17.0575 1.72451C17.3076 1.47446 17.6467 1.33398 18.0003 1.33398Z" fill="#027833"/>
<path d="M16.6663 12H19.333V21.324C18.8877 21.3324 18.4423 21.3355 17.997 21.3333C17.4583 21.3333 17.0263 21.3333 16.6676 21.324L16.6663 12ZM16.6516 23.9893C17.097 24 17.5823 24 18.065 24C18.5139 24.0018 18.9316 23.9987 19.3183 23.9907C19.31 24.6598 19.2596 25.3278 19.1676 25.9907C18.9916 27.1013 18.581 28.1653 17.509 28.8267C16.465 29.472 15.317 29.4093 14.2023 29.1413C13.125 28.884 11.7983 28.3653 10.205 27.7413L6.66764 26.3547V29.3333C6.66764 29.687 6.52717 30.0261 6.27712 30.2761C6.02707 30.5262 5.68793 30.6667 5.33431 30.6667C4.98069 30.6667 4.64155 30.5262 4.3915 30.2761C4.14145 30.0261 4.00098 29.687 4.00098 29.3333V18.6667C4.00098 18.313 4.14145 17.9739 4.3915 17.7239C4.64155 17.4738 4.98069 17.3333 5.33431 17.3333C5.68793 17.3333 6.02707 17.4738 6.27712 17.7239C6.52717 17.9739 6.66764 18.313 6.66764 18.6667V23.492L11.0836 25.2213C12.7956 25.892 13.9476 26.34 14.821 26.548C15.6756 26.7533 15.961 26.6493 16.1076 26.5587C16.2276 26.484 16.4143 26.336 16.5343 25.572C16.601 25.1493 16.6356 24.6347 16.6516 23.9893Z" fill="#027833"/>
</svg>
