<svg width="32" height="32" viewBox="0 0 32 32" fill="none" xmlns="http://www.w3.org/2000/svg">
<path opacity="0.4" fill-rule="evenodd" clip-rule="evenodd" d="M9.02797 5.6C8.40429 5.59913 7.78655 5.72117 7.21007 5.95915C6.63358 6.19714 6.10964 6.5464 5.6682 6.98697C5.22676 7.42754 4.87647 7.95079 4.63736 8.52681C4.39824 9.10283 4.27499 9.72033 4.27464 10.344V10.5893C4.27464 12.484 5.4893 14.1667 7.29197 14.7667C7.61907 14.8759 7.88937 15.1107 8.0434 15.4192C8.19743 15.7278 8.22257 16.0849 8.1133 16.412C8.00403 16.7391 7.7693 17.0094 7.46074 17.1634C7.15218 17.3175 6.79507 17.3426 6.46797 17.2333C5.07112 16.7709 3.85552 15.88 2.99384 14.6873C2.13217 13.4946 1.66824 12.0607 1.66797 10.5893V10.344C1.66902 9.37853 1.86022 8.42271 2.23067 7.53112C2.60111 6.63954 3.14354 5.82965 3.82698 5.1477C4.51041 4.46574 5.32148 3.92508 6.21387 3.55658C7.10626 3.18808 8.06249 2.99895 9.02797 3C10.9693 2.99907 12.871 3.54929 14.5119 4.58666C16.1528 5.62403 17.4655 7.10592 18.2973 8.86L26.6013 26.4H29.0333C29.209 26.392 29.3844 26.4198 29.5491 26.4815C29.7138 26.5433 29.8642 26.6377 29.9913 26.7592C30.1184 26.8807 30.2196 27.0267 30.2888 27.1884C30.3579 27.3501 30.3935 27.5242 30.3935 27.7C30.3935 27.8759 30.3579 28.0499 30.2888 28.2116C30.2196 28.3733 30.1184 28.5193 29.9913 28.6408C29.8642 28.7623 29.7138 28.8567 29.5491 28.9185C29.3844 28.9802 29.209 29.008 29.0333 29H21.8666C21.691 29.008 21.5155 28.9802 21.3508 28.9185C21.1862 28.8567 21.0358 28.7623 20.9086 28.6408C20.7815 28.5193 20.6803 28.3733 20.6112 28.2116C20.542 28.0499 20.5064 27.8759 20.5064 27.7C20.5064 27.5242 20.542 27.3501 20.6112 27.1884C20.6803 27.0267 20.7815 26.8807 20.9086 26.7592C21.0358 26.6377 21.1862 26.5433 21.3508 26.4815C21.5155 26.4198 21.691 26.392 21.8666 26.4H23.72L15.94 9.96934C15.3202 8.66099 14.3415 7.55565 13.1177 6.78209C11.894 6.00853 10.4757 5.59859 9.02797 5.6Z" fill="#027833"/>
<path fill-rule="evenodd" clip-rule="evenodd" d="M5.66536 14.666C5.66536 13.354 6.74803 12.334 8.0307 12.334C12.4547 12.334 16.2747 15.422 17.0747 19.7113L18.292 26.2447C18.5654 27.7087 17.412 29.0007 15.964 29.0007H12.3454C13.3033 28.0391 13.8843 26.7655 13.9827 25.4118C14.081 24.058 13.6901 22.7139 12.8812 21.6239C12.0722 20.534 10.8989 19.7707 9.57461 19.4728C8.25036 19.1748 6.86317 19.3622 5.66536 20.0007V14.666ZM8.33203 21.0007C7.27117 21.0007 6.25375 21.4221 5.5036 22.1722C4.75346 22.9224 4.33203 23.9398 4.33203 25.0007C4.33203 26.0615 4.75346 27.0789 5.5036 27.8291C6.25375 28.5792 7.27117 29.0007 8.33203 29.0007C9.3929 29.0007 10.4103 28.5792 11.1605 27.8291C11.9106 27.0789 12.332 26.0615 12.332 25.0007C12.332 23.9398 11.9106 22.9224 11.1605 22.1722C10.4103 21.4221 9.3929 21.0007 8.33203 21.0007ZM6.9987 25.0007C6.9987 24.647 7.13917 24.3079 7.38922 24.0578C7.63927 23.8078 7.97841 23.6673 8.33203 23.6673C8.68565 23.6673 9.02479 23.8078 9.27484 24.0578C9.52489 24.3079 9.66536 24.647 9.66536 25.0007C9.66536 25.3543 9.52489 25.6934 9.27484 25.9435C9.02479 26.1935 8.68565 26.334 8.33203 26.334C7.97841 26.334 7.63927 26.1935 7.38922 25.9435C7.13917 25.6934 6.9987 25.3543 6.9987 25.0007Z" fill="#027833"/>
</svg>
