<svg width="32" height="32" viewBox="0 0 32 32" fill="none" xmlns="http://www.w3.org/2000/svg">
<path fill-rule="evenodd" clip-rule="evenodd" d="M16.4995 7.02233C16.2249 7.01966 16.0875 7.01833 16.0089 7.09966C15.9289 7.17966 15.9329 7.325 15.9422 7.613C15.9449 7.69833 15.9462 7.78411 15.9462 7.87033C15.9462 8.95569 15.7289 10.0301 15.3073 11.0302C14.8856 12.0303 14.268 12.9358 13.4909 13.6936C12.7138 14.4513 11.7929 15.0458 10.7825 15.4421C9.77206 15.8384 8.69254 16.0284 7.60753 16.001C7.32086 15.993 7.17819 15.9903 7.09686 16.069C7.01686 16.149 7.01686 16.285 7.02086 16.557L7.12219 27.945C7.24219 28.793 7.53553 29.777 8.52219 30.1863C9.50886 30.5957 10.4115 30.1063 11.0955 29.5903C11.7969 29.0637 12.6355 28.2237 13.6502 27.2103L27.2062 13.6543C28.2195 12.6397 29.0595 11.801 29.5875 11.0983C30.1022 10.4143 30.5915 9.51166 30.1835 8.525C29.7742 7.53833 28.7902 7.245 27.9435 7.125L16.4995 7.02233Z" fill="#027833"/>
<path opacity="0.4" d="M7.92188 13.9902C11.2356 13.9902 13.9219 11.3039 13.9219 7.99023C13.9219 4.67653 11.2356 1.99023 7.92188 1.99023C4.60817 1.99023 1.92188 4.67653 1.92188 7.99023C1.92188 11.3039 4.60817 13.9902 7.92188 13.9902Z" fill="#027833"/>
<path opacity="0.4" fill-rule="evenodd" clip-rule="evenodd" d="M17.3753 26.304C17.0553 26.624 16.8953 26.784 16.8819 27.04C16.8686 27.296 16.9779 27.4306 17.1979 27.7013C17.2619 27.7795 17.3313 27.856 17.4059 27.9306C18.0126 28.5386 18.7686 28.7853 19.6059 28.8986C20.3993 29.0053 21.3979 29.0053 22.5953 29.0053H24.0673C25.2659 29.0053 26.2646 29.0053 27.058 28.8986C27.8953 28.7853 28.6499 28.5386 29.2579 27.9306C29.8659 27.3226 30.1126 26.568 30.2246 25.7306C30.3313 24.9373 30.3313 23.9386 30.3313 22.7413V21.268C30.3313 20.0693 30.3313 19.0706 30.2246 18.2773C30.1126 17.44 29.8646 16.6853 29.2579 16.0773C29.1824 16.0005 29.1022 15.9284 29.0179 15.8613C28.7473 15.644 28.6113 15.5346 28.3566 15.548C28.1019 15.5613 27.9419 15.7213 27.6233 16.0413L17.3753 26.304Z" fill="#027833"/>
</svg>
