<svg width="32" height="32" viewBox="0 0 32 32" fill="none" xmlns="http://www.w3.org/2000/svg">
<path opacity="0.4" fill-rule="evenodd" clip-rule="evenodd" d="M3.73826 17.192C4.08499 17.1225 4.44512 17.1936 4.73942 17.3897C5.03373 17.5857 5.23811 17.8906 5.3076 18.2373L6.4276 23.832H8.87026C9.32093 23.832 10.0809 23.848 10.6836 24.3573C11.2863 24.868 11.4263 25.616 11.5009 26.06L11.9809 28.9467C12.015 29.1215 12.0137 29.3015 11.9771 29.4758C11.9405 29.6502 11.8694 29.8154 11.7678 29.9618C11.6663 30.1082 11.5364 30.2328 11.3859 30.3281C11.2355 30.4235 11.0674 30.4877 10.8917 30.517C10.7159 30.5464 10.5361 30.5402 10.3628 30.4988C10.1895 30.4575 10.0263 30.3818 9.88271 30.2763C9.73915 30.1708 9.61819 30.0376 9.52696 29.8846C9.43574 29.7316 9.37611 29.5618 9.3516 29.3853L8.8716 26.4987H6.29293L5.2636 29.5867C5.21122 29.7564 5.12547 29.9139 5.01138 30.05C4.8973 30.1861 4.75718 30.298 4.59924 30.3792C4.44131 30.4604 4.26875 30.5092 4.09168 30.5228C3.91462 30.5364 3.73663 30.5145 3.56815 30.4584C3.39967 30.4022 3.2441 30.313 3.11057 30.196C2.97704 30.0789 2.86824 29.9363 2.79057 29.7766C2.71289 29.6169 2.6679 29.4433 2.65823 29.266C2.64856 29.0887 2.67441 28.9112 2.73426 28.744L3.9556 25.08L2.6916 18.76C2.6225 18.4135 2.69379 18.0537 2.88979 17.7597C3.08579 17.4657 3.39182 17.2615 3.73826 17.192ZM28.2609 17.192C27.9142 17.1225 27.5541 17.1936 27.2598 17.3897C26.9655 17.5857 26.7611 17.8906 26.6916 18.2373L25.5716 23.832H23.1289C22.6783 23.832 21.9169 23.848 21.3156 24.3573C20.7116 24.868 20.5729 25.616 20.4983 26.06L20.0183 28.9467C19.9705 29.2907 20.0588 29.6398 20.2645 29.9197C20.4701 30.1996 20.7769 30.3881 21.1195 30.4453C21.4621 30.5025 21.8135 30.4237 22.0988 30.2257C22.3842 30.0278 22.5811 29.7263 22.6476 29.3853L23.1276 26.4987H25.7049L26.7343 29.5867C26.8517 29.9148 27.093 30.1839 27.4064 30.3363C27.7198 30.4888 28.0804 30.5124 28.411 30.4023C28.7417 30.2921 29.016 30.0569 29.1754 29.747C29.3347 29.437 29.3664 29.077 29.2636 28.744L28.0423 25.08L29.3063 18.76C29.3754 18.4135 29.3041 18.0537 29.1081 17.7597C28.9121 17.4657 28.6074 17.2615 28.2609 17.192Z" fill="#027833"/>
<path opacity="0.4" d="M14.4999 2.18933C14.8532 1.892 15.3719 1.5 16.0012 1.5C16.6319 1.5 17.1506 1.892 17.5026 2.18933C17.8972 2.52 18.3772 3 18.9559 3.576L18.9906 3.61067C20.9679 5.58667 23.6506 7.568 26.2919 8.804C26.8346 9.05733 27.3212 9.36533 27.7452 9.796C28.1679 10.2267 28.4879 10.7387 28.7506 11.352C28.9559 11.8293 29.1426 12.52 28.8519 13.168C28.5092 13.936 27.7426 14.1667 27.0786 14.1667H4.92391C4.25858 14.1667 3.49324 13.936 3.14924 13.1667C2.85991 12.52 3.04524 11.8293 3.25058 11.352C3.51458 10.7387 3.83324 10.2267 4.25724 9.796C4.67833 9.38091 5.1706 9.0449 5.71058 8.804C8.35058 7.568 11.0346 5.58667 13.0119 3.61067L13.0466 3.576C13.6239 3 14.1039 2.52 14.4999 2.18933Z" fill="#027833"/>
<path d="M14.668 14.166H17.3346V18.4993H20.0013C20.3549 18.4993 20.6941 18.6398 20.9441 18.8899C21.1942 19.1399 21.3346 19.4791 21.3346 19.8327C21.3346 20.1863 21.1942 20.5254 20.9441 20.7755C20.6941 21.0255 20.3549 21.166 20.0013 21.166H17.3346V27.8327C17.6883 27.8327 18.0274 27.9732 18.2774 28.2232C18.5275 28.4733 18.668 28.8124 18.668 29.166C18.668 29.5196 18.5275 29.8588 18.2774 30.1088C18.0274 30.3589 17.6883 30.4993 17.3346 30.4993H14.668C14.3143 30.4993 13.9752 30.3589 13.7252 30.1088C13.4751 29.8588 13.3346 29.5196 13.3346 29.166C13.3346 28.8124 13.4751 28.4733 13.7252 28.2232C13.9752 27.9732 14.3143 27.8327 14.668 27.8327V21.166H12.0013C11.6477 21.166 11.3085 21.0255 11.0585 20.7755C10.8084 20.5254 10.668 20.1863 10.668 19.8327C10.668 19.4791 10.8084 19.1399 11.0585 18.8899C11.3085 18.6398 11.6477 18.4993 12.0013 18.4993H14.668V14.166Z" fill="#027833"/>
</svg>
