<svg width="32" height="32" viewBox="0 0 32 32" fill="none" xmlns="http://www.w3.org/2000/svg">
<path opacity="0.32" d="M30.2827 7.95771L30.304 8.26838C30.3634 9.40512 30.3313 10.5448 30.208 11.6764C29.988 13.663 29.3853 16.2564 27.696 17.9457C26.5896 19.0239 25.1031 19.6229 23.5582 19.613C22.0134 19.6031 20.5347 18.9851 19.4422 17.8928C18.3498 16.8005 17.7315 15.3219 17.7214 13.7771C17.7112 12.2322 18.31 10.7456 19.388 9.63905C21.076 7.94838 23.6707 7.34571 25.6573 7.12571C26.7889 7.00284 27.9286 6.97074 29.0653 7.02971L29.376 7.05105C29.856 7.09505 30.2387 7.47771 30.2827 7.95771ZM1.72266 3.97638V3.96305C1.74359 3.72963 1.84584 3.51098 2.01155 3.34527C2.17726 3.17956 2.39591 3.07731 2.62932 3.05638C4.0153 2.96247 5.40684 2.99013 6.78799 3.13905C9.01732 3.38705 11.8987 4.06171 13.768 5.93105C14.3701 6.5332 14.8478 7.24806 15.1737 8.03481C15.4996 8.82157 15.6673 9.6648 15.6673 10.5164C15.6673 11.368 15.4996 12.2112 15.1737 12.9979C14.8478 13.7847 14.3701 14.4996 13.768 15.1017C13.1658 15.7039 12.451 16.1815 11.6642 16.5074C10.8775 16.8333 10.0342 17.001 9.18266 17.001C8.33108 17.001 7.48785 16.8333 6.70109 16.5074C5.91434 16.1815 5.19948 15.7039 4.59732 15.1017C2.72799 13.2324 2.05332 10.351 1.80666 8.12038C1.70159 7.15074 1.65573 6.1756 1.66932 5.20038C1.67466 4.83371 1.70932 4.20038 1.72266 3.97638Z" fill="#027833"/>
<path d="M24.5547 14.1662C24.5547 14.1662 24.3573 14.3062 24.256 14.3822C24.0533 14.5342 23.7587 14.7649 23.4027 15.0716C22.4477 15.8963 21.5702 16.8068 20.7813 17.7916C18.8707 20.1822 17 23.6342 17 28.0009C17 28.2661 16.8946 28.5205 16.7071 28.708C16.5196 28.8955 16.2652 29.0009 16 29.0009C15.7348 29.0009 15.4804 28.8955 15.2929 28.708C15.1054 28.5205 15 28.2661 15 28.0009C15 23.0356 17.1293 19.1556 19.2187 16.5436C20.0853 15.462 21.0494 14.4623 22.0987 13.5569C22.4907 13.2169 22.8213 12.9569 23.056 12.7822C23.1733 12.6942 23.4453 12.5022 23.4453 12.5022C23.5546 12.4277 23.6775 12.3755 23.807 12.3488C23.9365 12.322 24.07 12.3213 24.1999 12.3465C24.3297 12.3717 24.4532 12.4224 24.5633 12.4957C24.6734 12.569 24.7678 12.6634 24.8412 12.7734C24.9146 12.8835 24.9654 13.007 24.9907 13.1368C25.016 13.2666 25.0153 13.4001 24.9886 13.5296C24.962 13.6592 24.9099 13.7821 24.8354 13.8914C24.7609 14.0007 24.6655 14.0941 24.5547 14.1662Z" fill="#027833"/>
<path d="M7.23214 8.69358C7.40193 8.48996 7.64562 8.3621 7.90965 8.33809C8.17367 8.31409 8.43643 8.39592 8.64014 8.56558C8.64014 8.56558 8.91214 8.80558 9.02948 8.91491C9.26281 9.13491 9.59214 9.45892 9.98548 9.88425C10.7695 10.7336 11.8081 11.9909 12.8455 13.6336C15.5696 17.9294 17.011 22.9135 17.0001 28.0002C17.0001 28.2655 16.8948 28.5198 16.7073 28.7074C16.5197 28.8949 16.2654 29.0002 16.0001 29.0002C15.7349 29.0002 15.4806 28.8949 15.293 28.7074C15.1055 28.5198 15.0001 28.2655 15.0001 28.0002C15.0001 22.2309 13.0788 17.7469 11.1548 14.7016C10.3814 13.4707 9.49778 12.3126 8.51481 11.2416C8.15748 10.8536 7.86148 10.5629 7.65881 10.3722C7.55748 10.2762 7.35881 10.1016 7.35881 10.1016C7.15539 9.93161 7.02778 9.68782 7.00402 9.4238C6.98027 9.15978 7.06232 8.89713 7.23214 8.69358Z" fill="#027833"/>
</svg>
