<svg width="32" height="32" viewBox="0 0 32 32" fill="none" xmlns="http://www.w3.org/2000/svg">
<path opacity="0.4" d="M1.83203 7.22294C1.83203 5.44961 3.40536 4.08961 5.16003 4.34294L11.1787 5.21094C12.0787 5.34028 12.7894 5.44161 13.3974 5.78961C13.6507 5.93539 13.8836 6.10828 14.096 6.30828C14.6067 6.78961 14.9094 7.43894 15.2947 8.26294L21.0707 20.5923C21.142 20.7446 21.1738 20.9126 21.163 21.0805C21.1522 21.2484 21.0992 21.4108 21.0089 21.5528C20.9187 21.6948 20.794 21.8117 20.6466 21.8927C20.4991 21.9737 20.3336 22.0162 20.1654 22.0163C18.4987 22.0163 17.38 21.5629 16.3094 20.9229C15.9336 20.6952 15.5633 20.4587 15.1987 20.2136C14.4718 19.7166 13.7148 19.2651 12.932 18.8616C11.8974 18.3376 10.6054 18.0989 9.40936 18.0336C8.2067 17.9669 7.22003 18.0816 6.84536 18.1763C6.61879 18.234 6.37914 18.2105 6.16808 18.1099C5.95702 18.0093 5.7879 17.8379 5.6901 17.6255C5.59231 17.4131 5.57203 17.1732 5.6328 16.9474C5.69356 16.7216 5.83152 16.5242 6.0227 16.3896L9.76403 13.7443C10.0107 13.5696 10.1334 13.4829 10.1734 13.3496C10.2134 13.2163 10.1574 13.0763 10.0454 12.7963L9.61603 11.7136C9.37203 11.0976 8.81603 10.8869 8.56936 10.8603L4.23603 10.0896C3.56243 9.97027 2.95234 9.61759 2.51277 9.09341C2.07319 8.56924 1.83219 7.90704 1.83203 7.22294ZM20.4987 13.0203C20.4987 11.6942 21.0255 10.4224 21.9632 9.48474C22.9008 8.54706 24.1726 8.02028 25.4987 8.02028C26.8248 8.02028 28.0965 8.54706 29.0342 9.48474C29.9719 10.4224 30.4987 11.6942 30.4987 13.0203C30.4987 14.3464 29.9719 15.6181 29.0342 16.5558C28.0965 17.4935 26.8248 18.0203 25.4987 18.0203C24.1726 18.0203 22.9008 17.4935 21.9632 16.5558C21.0255 15.6181 20.4987 14.3464 20.4987 13.0203Z" fill="#027833"/>
<path fill-rule="evenodd" clip-rule="evenodd" d="M5.28952 22.649C4.79352 22.889 4.36685 23.321 4.11085 24.1757C4.06367 24.3468 3.98282 24.5067 3.87303 24.6461C3.76324 24.7855 3.62673 24.9016 3.4715 24.9876C3.31626 25.0735 3.14543 25.1277 2.96901 25.1467C2.79259 25.1658 2.61414 25.1495 2.4441 25.0988C2.27407 25.048 2.11588 24.9638 1.9788 24.8511C1.84173 24.7384 1.72852 24.5995 1.64583 24.4425C1.56313 24.2855 1.51261 24.1136 1.49721 23.9368C1.48182 23.76 1.50187 23.582 1.55619 23.413C2.00419 21.913 2.89219 20.849 4.12552 20.2504C5.30419 19.677 6.66152 19.597 7.98019 19.749C10.6015 20.0477 13.5962 21.321 16.1082 22.6077C18.5762 23.8717 20.8815 24.8077 22.8215 24.985C23.7682 25.0717 24.5682 24.9717 25.2389 24.685C25.8949 24.405 26.5082 23.913 27.0442 23.0757C27.1386 22.9282 27.2611 22.8007 27.4047 22.7005C27.5484 22.6003 27.7103 22.5294 27.8814 22.4919C28.0524 22.4543 28.2292 22.4508 28.4016 22.4815C28.574 22.5122 28.7387 22.5766 28.8862 22.671C29.0337 22.7654 29.1612 22.8879 29.2614 23.0316C29.3615 23.1752 29.4324 23.3372 29.47 23.5082C29.5076 23.6793 29.5111 23.856 29.4804 24.0284C29.4496 24.2008 29.3852 24.3655 29.2909 24.513C28.4922 25.7597 27.4775 26.629 26.2869 27.137C25.1082 27.641 23.8415 27.757 22.5775 27.641C20.0949 27.4144 17.4002 26.265 14.8922 24.981C12.4295 23.7197 9.79485 22.6397 7.67885 22.3984C6.62819 22.2784 5.83885 22.3824 5.28952 22.649Z" fill="#027833"/>
</svg>
