<svg width="32" height="32" viewBox="0 0 32 32" fill="none" xmlns="http://www.w3.org/2000/svg">
<path opacity="0.4" d="M4.33496 3.59564C4.34029 3.30098 4.34963 2.93164 4.37896 2.61564C4.3999 2.38223 4.50214 2.16358 4.66786 1.99787C4.83357 1.83216 5.05221 1.72991 5.28563 1.70898C6.37832 1.63483 7.47542 1.65669 8.56429 1.77431C10.3083 1.96898 12.615 2.49964 14.1243 4.01031C14.6301 4.49527 15.0341 5.07631 15.3125 5.7194C15.5908 6.36248 15.738 7.05466 15.7455 7.75538C15.7529 8.45609 15.6203 9.15123 15.3556 9.80006C15.0909 10.4489 14.6994 11.0384 14.2039 11.5339C13.7084 12.0295 13.119 12.4211 12.4703 12.6859C11.8215 12.9508 11.1264 13.0834 10.4256 13.0761C9.72494 13.0688 9.03273 12.9218 8.38959 12.6435C7.74646 12.3652 7.16534 11.9614 6.68029 11.4556C5.16963 9.94631 4.63896 7.63964 4.44429 5.89564C4.36144 5.1319 4.32582 4.36377 4.33763 3.59564M27.627 6.61031C27.6656 6.85298 27.6616 7.20498 27.6656 7.45964C27.6723 7.96764 27.659 8.67031 27.5723 9.45031C27.4056 10.9503 26.9456 12.9703 25.615 14.301C24.738 15.155 23.5599 15.6294 22.3357 15.6212C21.1116 15.6131 19.9399 15.1232 19.0743 14.2576C18.2087 13.392 17.7188 12.2203 17.7107 10.9962C17.7026 9.77206 18.1769 8.59398 19.031 7.71698C20.3616 6.38631 22.3803 5.92631 23.883 5.75964C24.8257 5.65689 25.7756 5.63815 26.7216 5.70364C27.2016 5.74764 27.5843 6.13031 27.6283 6.61031M22.9696 24.9556C22.8203 25.9943 22.6963 26.865 22.5083 27.5543C22.3083 28.2836 22.0056 28.929 21.423 29.4343C20.8403 29.9396 20.159 30.1463 19.4096 30.241C18.7003 30.3316 17.8203 30.3303 16.7723 30.3303H15.2296C14.1803 30.3303 13.3003 30.3303 12.5923 30.241C11.8416 30.1476 11.1603 29.9396 10.579 29.4343C9.99496 28.929 9.69363 28.2836 9.49363 27.5543C9.30429 26.865 9.18029 25.9943 9.03229 24.9556L8.34429 20.1383H23.6576L22.9696 24.9556Z" fill="#027833"/>
<path fill-rule="evenodd" clip-rule="evenodd" d="M7 20C7 19.7348 7.10536 19.4804 7.29289 19.2929C7.48043 19.1054 7.73478 19 8 19H24C24.2652 19 24.5196 19.1054 24.7071 19.2929C24.8946 19.4804 25 19.7348 25 20C25 20.2652 24.8946 20.5196 24.7071 20.7071C24.5196 20.8946 24.2652 21 24 21H8C7.73478 21 7.48043 20.8946 7.29289 20.7071C7.10536 20.5196 7 20.2652 7 20Z" fill="#027833"/>
<path d="M18.3867 13.498C17.8361 14.0008 17.3302 14.5504 16.8747 15.1407C15.9853 16.2954 15 18.0114 15 19.9994C15 20.2646 15.1054 20.519 15.2929 20.7065C15.4804 20.894 15.7348 20.9994 16 20.9994C16.2652 20.9994 16.5196 20.894 16.7071 20.7065C16.8946 20.519 17 20.2646 17 19.9994C17 18.6554 17.6813 17.3714 18.46 16.3594C18.8594 15.8404 19.3057 15.3592 19.7933 14.922C19.2265 14.5549 18.7461 14.069 18.3853 13.498" fill="#027833"/>
<path d="M12.8564 12.3934L12.9044 12.4694C13.1324 12.8294 13.4418 13.3708 13.7538 14.0708C14.3764 15.4708 15.0004 17.5001 15.0004 19.9974C15.0004 20.2626 15.1058 20.517 15.2933 20.7045C15.4809 20.8921 15.7352 20.9974 16.0004 20.9974C16.2657 20.9974 16.52 20.8921 16.7076 20.7045C16.8951 20.517 17.0004 20.2626 17.0004 19.9974C17.0004 17.1628 16.2911 14.8574 15.5804 13.2588C15.253 12.52 14.865 11.8096 14.4204 11.1348C13.9835 11.6495 13.4528 12.0767 12.8564 12.3934Z" fill="#027833"/>
</svg>
