<svg width="32" height="32" viewBox="0 0 32 32" fill="none" xmlns="http://www.w3.org/2000/svg">
<path opacity="0.4" d="M9.42188 16C9.42188 16 9.42188 20 13.3339 21.3333" stroke="#027833" stroke-width="2.5" stroke-linecap="round" stroke-linejoin="round"/>
<path opacity="0.4" d="M29.3327 28.4965C28.3645 29.0287 27.2775 29.3077 26.1727 29.3077C25.0678 29.3077 23.9809 29.0287 23.0127 28.4965C22.4227 28.1708 21.7599 28 21.086 28C20.4122 28 19.7493 28.1708 19.1593 28.4965C19.1593 28.4965 19.1313 28.4965 19.1313 28.5218C17.2033 29.6018 14.738 29.6018 12.8393 28.5218C11.65 27.8578 10.1473 27.8578 8.98601 28.5218M8.98601 28.4965C8.01781 29.0287 6.93086 29.3077 5.82602 29.3077C4.72117 29.3077 3.63423 29.0287 2.66602 28.4965" stroke="#027833" stroke-width="2.5" stroke-linecap="round"/>
<path d="M14.666 9.33398C14.666 12.6934 16.0005 15.9152 18.376 18.2907C20.7515 20.6661 23.9733 22.0007 27.3327 22.0007H29.3327" stroke="#027833" stroke-width="2.5" stroke-linecap="round"/>
<path d="M9.17413 9.23634C9.67013 9.52434 10.6301 10.2443 12.2301 9.95634C14.1501 9.36434 15.7248 8.86834 16.9501 9.60434C18.1501 10.3243 18.9501 10.9643 19.4301 10.6443C19.6675 10.691 20.0648 9.78167 19.9821 8.48434C19.9261 7.59234 19.6181 6.51767 18.9341 5.44434C18.5341 4.88434 18.2768 4.687 18.2301 4.64434C15.6381 2.20967 11.4555 1.811 7.75013 4.64434C3.59013 8.00434 3.03013 12.2443 2.79013 14.3243C2.39013 18.3243 3.03013 22.8843 3.67013 25.3643" stroke="#027833" stroke-width="2.5" stroke-linecap="round"/>
</svg>
